<svg width="78" height="36" viewBox="0 0 78 36" fill="none" xmlns="http://www.w3.org/2000/svg">
<g clip-path="url(#clip0)">
<path d="M76.5 1.79504L76.6 9.77288L49.5 35.302L39.4 23.4349L29.3 35.302L1.5 9.17454L0.5 1.69531" stroke="black" stroke-miterlimit="10"/>
<path d="M48.6 26.2271L49.5 35.2021" stroke="black" stroke-width="0.75" stroke-miterlimit="10"/>
<path d="M38.5 15.457L39.4 23.4349" stroke="black" stroke-width="0.75" stroke-miterlimit="10"/>
<path d="M28.4 27.1248L29.3 35.302" stroke="black" stroke-width="0.75" stroke-miterlimit="10"/>
<path d="M76.3 1.79506L75.2 0.598389L38.5 12.6649L1.79995 0.598389L0.699951 1.79506L28.4 27.1247L38.5 15.2577L48.5999 27.1247L76.3 1.79506Z" fill="#EC3332" stroke="black" stroke-miterlimit="10"/>
<path d="M28.5 27.2245L38.6 15.3574L39.4 23.3353L29.4 35.1026L28.5 27.2245Z" fill="black"/>
<path d="M48.6 27.1246L49.5 35.3018L76.6 9.87248V1.89464L76.1 1.79492L48.6 27.1246Z" fill="black"/>
</g>
<defs>
<clipPath id="clip0">
<rect width="77.1" height="36" fill="white"/>
</clipPath>
</defs>
</svg>
