<svg width="478" height="56" viewBox="0 0 478 56" fill="none" xmlns="http://www.w3.org/2000/svg">
<path d="M31.3293 15L24.3698 8.00003L1.99987 31.5L24.3698 54L30.8322 47.5L14.9999 31.25L31.3293 15Z" fill="#EC3332" stroke="#EC3332" stroke-width="2"/>
<path d="M32 9.00003L25 2.00003L2.5 25.5L25 48L31.5 41.5L15.5 25.5L32 9.00003Z" fill="white" stroke="#EC3332" stroke-width="2"/>
<path d="M91.18 20V34H87.94V22.6H85.14V20H91.18Z" fill="#EC3332"/>
<path d="M141.637 32.72L146.397 28.04C148.277 26.2 148.697 25 148.697 23.66C148.697 21.32 146.897 19.88 144.057 19.88C141.917 19.88 140.177 20.6 139.097 21.88L140.117 22.76C141.037 21.7 142.297 21.2 143.937 21.2C146.077 21.2 147.217 22.2 147.217 23.82C147.217 24.78 146.917 25.72 145.337 27.28L139.517 32.98V34H149.337V32.72H141.637ZM201.809 26L205.769 21.02V20H196.769V21.28H203.929L200.049 26.14V27.2H201.049C203.649 27.2 204.829 28.3 204.829 29.98C204.829 31.72 203.549 32.8 201.229 32.8C199.409 32.8 197.789 32.12 196.889 31.18L196.189 32.32C197.269 33.42 199.209 34.12 201.229 34.12C204.609 34.12 206.309 32.32 206.309 29.98C206.309 27.74 204.809 26.16 201.809 26ZM266.142 29.04H263.342V25.8H261.942V29.04H255.862L263.022 20H261.422L254.002 29.28V30.32H261.902V34H263.342V30.32H266.142V29.04ZM314.45 34.1C315.03 34.1 315.53 33.62 315.53 33C315.53 32.38 315.03 31.92 314.45 31.92C313.87 31.92 313.39 32.38 313.39 33C313.39 33.62 313.87 34.1 314.45 34.1ZM319.088 34.1C319.668 34.1 320.168 33.62 320.168 33C320.168 32.38 319.668 31.92 319.088 31.92C318.508 31.92 318.028 32.38 318.028 33C318.028 33.62 318.508 34.1 319.088 34.1ZM323.726 34.1C324.306 34.1 324.806 33.62 324.806 33C324.806 32.38 324.306 31.92 323.726 31.92C323.146 31.92 322.666 32.38 322.666 33C322.666 33.62 323.146 34.1 323.726 34.1ZM371.929 20V21.28H375.229V34H376.669V20H371.929ZM385.996 34.12C389.236 34.12 391.596 31.46 391.596 27C391.596 22.54 389.236 19.88 385.996 19.88C382.756 19.88 380.416 22.54 380.416 27C380.416 31.46 382.756 34.12 385.996 34.12ZM385.996 32.8C383.556 32.8 381.876 30.74 381.876 27C381.876 23.26 383.556 21.2 385.996 21.2C388.436 21.2 390.116 23.26 390.116 27C390.116 30.74 388.436 32.8 385.996 32.8Z" fill="black"/>
<path d="M446.671 15L453.63 8L476 31.5L453.63 54L447.168 47.5L463 31.25L446.671 15Z" fill="#EC3332" stroke="#EC3332" stroke-width="2"/>
<path d="M446 9L453 2L475.5 25.5L453 48L446.5 41.5L462.5 25.5L446 9Z" fill="white" stroke="#EC3332" stroke-width="2"/>
</svg>
