<svg fill="none" height="52" viewBox="0 0 62 52" width="62" xmlns="http://www.w3.org/2000/svg"><g stroke="#ec3332" stroke-width="2"><path d="m51.3545 27.3225h-12.5301l.0001-21.6775h21.6775v22.6775c0 12.1899-9.6161 22.1326-21.6776 22.6558v-8.1597c7.5578-.5138 13.5301-6.8081 13.5301-14.4961v-1zm-32.8244 1v-1h-1-12.52999v-21.6775h21.67749v22.6775c0 12.1899-9.6166 22.1326-21.67749 22.6558v-8.1597c7.55779-.5138 13.52999-6.8081 13.52999-14.4961z"/><path d="m47.6035 23.3149h-12.53v-21.67747l21.6775.00001v22.67746c0 12.1899-9.616 22.1326-21.6775 22.6559v-8.1597c7.5577-.5139 13.53-6.8081 13.53-14.4962v-1zm-32.8244 1v-1h-1-12.52997v-21.67747h21.67747v22.67747c0 12.1899-9.6166 22.1326-21.67747 22.6559v-8.1598c7.55777-.5138 13.52997-6.808 13.52997-14.4961z" fill="#ec3332"/></g></svg>