<svg width="1432" height="21" viewBox="0 0 1432 21" fill="none" xmlns="http://www.w3.org/2000/svg">
<path d="M8.36 18.24C10.8 18.24 12.82 17.36 14.14 15.74L12.06 13.82C11.12 14.92 9.94 15.48 8.54 15.48C5.92 15.48 4.06 13.64 4.06 11C4.06 8.36 5.92 6.52 8.54 6.52C9.94 6.52 11.12 7.08 12.06 8.16L14.14 6.24C12.82 4.64 10.8 3.76 8.38 3.76C4.02 3.76 0.78 6.78 0.78 11C0.78 15.22 4.02 18.24 8.36 18.24ZM18.0397 4L17.8397 9.68C17.6997 13.26 17.2797 15.34 15.6397 15.34C15.4397 15.34 15.2597 15.32 15.0597 15.26L14.8597 18C15.4597 18.14 15.9797 18.22 16.4597 18.22C19.7397 18.22 20.5197 15.06 20.6997 9.56L20.7997 6.64H25.5997V18H28.7997V4H18.0397ZM35.9162 15.4V12.16H42.4162V9.64H35.9162V6.6H43.2763V4H32.6962V18H43.5362V15.4H35.9162ZM59.0333 15.36V4H48.2733L48.1133 8.38C47.9733 12.3 47.5133 15.3 45.6933 15.36H45.1333L45.1133 20.9H48.1133V18H57.9933V20.9H60.9933V15.36H59.0333ZM50.9733 8.68L51.0333 6.64H55.8333V15.36H49.5733C50.5333 14.22 50.8533 11.66 50.9733 8.68ZM73.0344 4L69.1944 11.52L65.4744 4H62.0144L67.5344 14.28L67.4144 14.44C66.8744 15.28 66.2544 15.64 65.4544 15.64C65.0344 15.64 64.5744 15.54 64.0544 15.38L63.2744 17.84C64.0544 18.16 64.8144 18.32 65.5544 18.32C67.4344 18.32 69.0944 17.24 70.2544 15.08L76.2144 4H73.0344ZM90.5141 3.76C86.7741 3.76 83.9141 6.1 83.2541 9.5H81.3741V4H78.1541V18H81.3741V12.3H83.2141C83.7941 15.8 86.7141 18.24 90.5141 18.24C94.7741 18.24 97.9141 15.18 97.9141 11C97.9141 6.82 94.7741 3.76 90.5141 3.76ZM90.5141 15.48C88.1941 15.48 86.3941 13.68 86.3941 11C86.3941 8.32 88.1941 6.52 90.5141 6.52C92.8341 6.52 94.6341 8.32 94.6341 11C94.6341 13.68 92.8341 15.48 90.5141 15.48ZM119.319 15.36V4H116.099V15.36H111.699V4H108.479V15.36H104.059V4H100.839V18H118.219V20.9H121.219V15.36H119.319ZM123.837 18H126.897L133.577 8.9V18H136.777V4H133.737L127.057 13.12V4H123.837V18ZM147.123 3.1C149.743 3.1 150.983 2 151.003 0.0399988H148.783C148.763 1 148.183 1.5 147.123 1.5C146.023 1.5 145.483 1 145.463 0.0399988H143.243C143.263 2 144.463 3.1 147.123 3.1ZM140.663 18H143.723L150.403 8.9V18H153.603V4H150.563L143.883 13.12V4H140.663V18ZM175.873 18L172.733 13.5C174.553 12.72 175.613 11.18 175.613 9.08C175.613 5.94 173.273 4 169.533 4H163.473V18H166.713V14.1H169.533H169.693L172.393 18H175.873ZM172.333 9.08C172.333 10.6 171.333 11.52 169.353 11.52H166.713V6.64H169.353C171.333 6.64 172.333 7.54 172.333 9.08ZM178.58 18H184.94C189.52 18 192.66 15.24 192.66 11C192.66 6.76 189.52 4 184.94 4H178.58V18ZM181.82 15.34V6.66H184.78C187.56 6.66 189.38 8.32 189.38 11C189.38 13.68 187.56 15.34 184.78 15.34H181.82ZM202.203 18.24C204.643 18.24 206.663 17.36 207.983 15.74L205.903 13.82C204.963 14.92 203.783 15.48 202.383 15.48C199.763 15.48 197.903 13.64 197.903 11C197.903 8.36 199.763 6.52 202.383 6.52C203.783 6.52 204.963 7.08 205.903 8.16L207.983 6.24C206.663 4.64 204.643 3.76 202.223 3.76C197.863 3.76 194.623 6.78 194.623 11C194.623 15.22 197.863 18.24 202.203 18.24ZM210.571 18H220.831V15.36H213.811V4H210.571V18ZM235.441 18L232.301 13.5C234.121 12.72 235.181 11.18 235.181 9.08C235.181 5.94 232.841 4 229.101 4H223.041V18H226.281V14.1H229.101H229.261L231.961 18H235.441ZM231.901 9.08C231.901 10.6 230.901 11.52 228.921 11.52H226.281V6.64H228.921C230.901 6.64 231.901 7.54 231.901 9.08ZM239.108 18.16C240.188 18.16 241.048 17.34 241.048 16.2C241.048 15.04 240.188 14.28 239.108 14.28C238.028 14.28 237.168 15.04 237.168 16.2C237.168 17.34 238.028 18.16 239.108 18.16ZM253.383 4V9.52H247.023V4H243.783V18H247.023V12.26H253.383V18H256.623V4H253.383ZM267.115 18.24C271.515 18.24 274.775 15.18 274.775 11C274.775 6.82 271.515 3.76 267.115 3.76C262.695 3.76 259.455 6.84 259.455 11C259.455 15.16 262.695 18.24 267.115 18.24ZM267.115 15.48C264.615 15.48 262.735 13.66 262.735 11C262.735 8.34 264.615 6.52 267.115 6.52C269.615 6.52 271.495 8.34 271.495 11C271.495 13.66 269.615 15.48 267.115 15.48ZM293.39 18L293.35 4H290.69L285.53 12.7L280.29 4H277.61V18H280.65V9.78L284.75 16.52H286.21L290.33 9.6L290.35 18H293.39ZM300.332 15.4V12.16H306.832V9.64H300.332V6.6H307.692V4H297.112V18H307.952V15.4H300.332ZM347.95 18.24C350.39 18.24 352.41 17.36 353.73 15.74L351.65 13.82C350.71 14.92 349.53 15.48 348.13 15.48C345.51 15.48 343.65 13.64 343.65 11C343.65 8.36 345.51 6.52 348.13 6.52C349.53 6.52 350.71 7.08 351.65 8.16L353.73 6.24C352.41 4.64 350.39 3.76 347.97 3.76C343.61 3.76 340.37 6.78 340.37 11C340.37 15.22 343.61 18.24 347.95 18.24ZM357.63 4L357.43 9.68C357.29 13.26 356.87 15.34 355.23 15.34C355.03 15.34 354.85 15.32 354.65 15.26L354.45 18C355.05 18.14 355.57 18.22 356.05 18.22C359.33 18.22 360.11 15.06 360.29 9.56L360.39 6.64H365.19V18H368.39V4H357.63ZM375.506 15.4V12.16H382.006V9.64H375.506V6.6H382.866V4H372.286V18H383.126V15.4H375.506ZM398.623 15.36V4H387.863L387.703 8.38C387.563 12.3 387.103 15.3 385.283 15.36H384.723L384.703 20.9H387.703V18H397.583V20.9H400.583V15.36H398.623ZM390.563 8.68L390.623 6.64H395.423V15.36H389.163C390.123 14.22 390.443 11.66 390.563 8.68ZM412.624 4L408.784 11.52L405.064 4H401.604L407.124 14.28L407.004 14.44C406.464 15.28 405.844 15.64 405.044 15.64C404.624 15.64 404.164 15.54 403.644 15.38L402.864 17.84C403.644 18.16 404.404 18.32 405.144 18.32C407.024 18.32 408.684 17.24 409.844 15.08L415.804 4H412.624ZM430.104 3.76C426.364 3.76 423.504 6.1 422.844 9.5H420.964V4H417.744V18H420.964V12.3H422.804C423.384 15.8 426.304 18.24 430.104 18.24C434.364 18.24 437.504 15.18 437.504 11C437.504 6.82 434.364 3.76 430.104 3.76ZM430.104 15.48C427.784 15.48 425.984 13.68 425.984 11C425.984 8.32 427.784 6.52 430.104 6.52C432.424 6.52 434.224 8.32 434.224 11C434.224 13.68 432.424 15.48 430.104 15.48ZM458.909 15.36V4H455.689V15.36H451.289V4H448.069V15.36H443.649V4H440.429V18H457.809V20.9H460.809V15.36H458.909ZM463.427 18H466.487L473.167 8.9V18H476.367V4H473.327L466.647 13.12V4H463.427V18ZM486.713 3.1C489.333 3.1 490.573 2 490.593 0.0399988H488.373C488.353 1 487.773 1.5 486.713 1.5C485.613 1.5 485.073 1 485.053 0.0399988H482.833C482.853 2 484.053 3.1 486.713 3.1ZM480.253 18H483.313L489.993 8.9V18H493.193V4H490.153L483.473 13.12V4H480.253V18ZM515.462 18L512.322 13.5C514.142 12.72 515.202 11.18 515.202 9.08C515.202 5.94 512.862 4 509.122 4H503.062V18H506.302V14.1H509.122H509.282L511.982 18H515.462ZM511.922 9.08C511.922 10.6 510.922 11.52 508.942 11.52H506.302V6.64H508.942C510.922 6.64 511.922 7.54 511.922 9.08ZM518.169 18H524.529C529.109 18 532.249 15.24 532.249 11C532.249 6.76 529.109 4 524.529 4H518.169V18ZM521.409 15.34V6.66H524.369C527.149 6.66 528.969 8.32 528.969 11C528.969 13.68 527.149 15.34 524.369 15.34H521.409ZM541.793 18.24C544.233 18.24 546.253 17.36 547.573 15.74L545.493 13.82C544.553 14.92 543.373 15.48 541.973 15.48C539.353 15.48 537.493 13.64 537.493 11C537.493 8.36 539.353 6.52 541.973 6.52C543.373 6.52 544.553 7.08 545.493 8.16L547.573 6.24C546.253 4.64 544.233 3.76 541.813 3.76C537.453 3.76 534.213 6.78 534.213 11C534.213 15.22 537.453 18.24 541.793 18.24ZM550.161 18H560.421V15.36H553.401V4H550.161V18ZM575.031 18L571.891 13.5C573.711 12.72 574.771 11.18 574.771 9.08C574.771 5.94 572.431 4 568.691 4H562.631V18H565.871V14.1H568.691H568.851L571.551 18H575.031ZM571.491 9.08C571.491 10.6 570.491 11.52 568.511 11.52H565.871V6.64H568.511C570.491 6.64 571.491 7.54 571.491 9.08ZM578.698 18.16C579.778 18.16 580.638 17.34 580.638 16.2C580.638 15.04 579.778 14.28 578.698 14.28C577.618 14.28 576.758 15.04 576.758 16.2C576.758 17.34 577.618 18.16 578.698 18.16ZM592.973 4V9.52H586.613V4H583.373V18H586.613V12.26H592.973V18H596.213V4H592.973ZM606.705 18.24C611.105 18.24 614.365 15.18 614.365 11C614.365 6.82 611.105 3.76 606.705 3.76C602.285 3.76 599.045 6.84 599.045 11C599.045 15.16 602.285 18.24 606.705 18.24ZM606.705 15.48C604.205 15.48 602.325 13.66 602.325 11C602.325 8.34 604.205 6.52 606.705 6.52C609.205 6.52 611.085 8.34 611.085 11C611.085 13.66 609.205 15.48 606.705 15.48ZM632.98 18L632.94 4H630.28L625.12 12.7L619.88 4H617.2V18H620.24V9.78L624.34 16.52H625.8L629.92 9.6L629.94 18H632.98ZM639.921 15.4V12.16H646.421V9.64H639.921V6.6H647.281V4H636.701V18H647.541V15.4H639.921ZM687.54 18.24C689.98 18.24 692 17.36 693.32 15.74L691.24 13.82C690.3 14.92 689.12 15.48 687.72 15.48C685.1 15.48 683.24 13.64 683.24 11C683.24 8.36 685.1 6.52 687.72 6.52C689.12 6.52 690.3 7.08 691.24 8.16L693.32 6.24C692 4.64 689.98 3.76 687.56 3.76C683.2 3.76 679.96 6.78 679.96 11C679.96 15.22 683.2 18.24 687.54 18.24ZM697.219 4L697.019 9.68C696.879 13.26 696.459 15.34 694.819 15.34C694.619 15.34 694.439 15.32 694.239 15.26L694.039 18C694.639 18.14 695.159 18.22 695.639 18.22C698.919 18.22 699.699 15.06 699.879 9.56L699.979 6.64H704.779V18H707.979V4H697.219ZM715.096 15.4V12.16H721.596V9.64H715.096V6.6H722.456V4H711.876V18H722.716V15.4H715.096ZM738.213 15.36V4H727.453L727.293 8.38C727.153 12.3 726.693 15.3 724.873 15.36H724.313L724.293 20.9H727.293V18H737.173V20.9H740.173V15.36H738.213ZM730.153 8.68L730.213 6.64H735.013V15.36H728.753C729.713 14.22 730.033 11.66 730.153 8.68ZM752.214 4L748.374 11.52L744.654 4H741.194L746.714 14.28L746.594 14.44C746.054 15.28 745.434 15.64 744.634 15.64C744.214 15.64 743.754 15.54 743.234 15.38L742.454 17.84C743.234 18.16 743.994 18.32 744.734 18.32C746.614 18.32 748.274 17.24 749.434 15.08L755.394 4H752.214ZM769.694 3.76C765.954 3.76 763.094 6.1 762.434 9.5H760.554V4H757.334V18H760.554V12.3H762.394C762.974 15.8 765.894 18.24 769.694 18.24C773.954 18.24 777.094 15.18 777.094 11C777.094 6.82 773.954 3.76 769.694 3.76ZM769.694 15.48C767.374 15.48 765.574 13.68 765.574 11C765.574 8.32 767.374 6.52 769.694 6.52C772.014 6.52 773.814 8.32 773.814 11C773.814 13.68 772.014 15.48 769.694 15.48ZM798.499 15.36V4H795.279V15.36H790.879V4H787.659V15.36H783.239V4H780.019V18H797.399V20.9H800.399V15.36H798.499ZM803.017 18H806.077L812.757 8.9V18H815.957V4H812.917L806.237 13.12V4H803.017V18ZM826.302 3.1C828.922 3.1 830.162 2 830.182 0.0399988H827.962C827.942 1 827.362 1.5 826.302 1.5C825.202 1.5 824.662 1 824.642 0.0399988H822.422C822.442 2 823.642 3.1 826.302 3.1ZM819.842 18H822.902L829.582 8.9V18H832.782V4H829.742L823.062 13.12V4H819.842V18ZM855.052 18L851.912 13.5C853.732 12.72 854.792 11.18 854.792 9.08C854.792 5.94 852.452 4 848.712 4H842.652V18H845.892V14.1H848.712H848.872L851.572 18H855.052ZM851.512 9.08C851.512 10.6 850.512 11.52 848.532 11.52H845.892V6.64H848.532C850.512 6.64 851.512 7.54 851.512 9.08ZM857.759 18H864.119C868.699 18 871.839 15.24 871.839 11C871.839 6.76 868.699 4 864.119 4H857.759V18ZM860.999 15.34V6.66H863.959C866.739 6.66 868.559 8.32 868.559 11C868.559 13.68 866.739 15.34 863.959 15.34H860.999ZM881.383 18.24C883.823 18.24 885.843 17.36 887.163 15.74L885.083 13.82C884.143 14.92 882.963 15.48 881.563 15.48C878.943 15.48 877.083 13.64 877.083 11C877.083 8.36 878.943 6.52 881.563 6.52C882.963 6.52 884.143 7.08 885.083 8.16L887.163 6.24C885.843 4.64 883.823 3.76 881.403 3.76C877.043 3.76 873.803 6.78 873.803 11C873.803 15.22 877.043 18.24 881.383 18.24ZM889.751 18H900.011V15.36H892.991V4H889.751V18ZM914.621 18L911.481 13.5C913.301 12.72 914.361 11.18 914.361 9.08C914.361 5.94 912.021 4 908.281 4H902.221V18H905.461V14.1H908.281H908.441L911.141 18H914.621ZM911.081 9.08C911.081 10.6 910.081 11.52 908.101 11.52H905.461V6.64H908.101C910.081 6.64 911.081 7.54 911.081 9.08ZM918.288 18.16C919.368 18.16 920.228 17.34 920.228 16.2C920.228 15.04 919.368 14.28 918.288 14.28C917.208 14.28 916.348 15.04 916.348 16.2C916.348 17.34 917.208 18.16 918.288 18.16ZM932.562 4V9.52H926.202V4H922.962V18H926.202V12.26H932.562V18H935.802V4H932.562ZM946.295 18.24C950.695 18.24 953.955 15.18 953.955 11C953.955 6.82 950.695 3.76 946.295 3.76C941.875 3.76 938.635 6.84 938.635 11C938.635 15.16 941.875 18.24 946.295 18.24ZM946.295 15.48C943.795 15.48 941.915 13.66 941.915 11C941.915 8.34 943.795 6.52 946.295 6.52C948.795 6.52 950.675 8.34 950.675 11C950.675 13.66 948.795 15.48 946.295 15.48ZM972.57 18L972.53 4H969.87L964.71 12.7L959.47 4H956.79V18H959.83V9.78L963.93 16.52H965.39L969.51 9.6L969.53 18H972.57ZM979.511 15.4V12.16H986.011V9.64H979.511V6.6H986.871V4H976.291V18H987.131V15.4H979.511ZM1027.13 18.24C1029.57 18.24 1031.59 17.36 1032.91 15.74L1030.83 13.82C1029.89 14.92 1028.71 15.48 1027.31 15.48C1024.69 15.48 1022.83 13.64 1022.83 11C1022.83 8.36 1024.69 6.52 1027.31 6.52C1028.71 6.52 1029.89 7.08 1030.83 8.16L1032.91 6.24C1031.59 4.64 1029.57 3.76 1027.15 3.76C1022.79 3.76 1019.55 6.78 1019.55 11C1019.55 15.22 1022.79 18.24 1027.13 18.24ZM1036.81 4L1036.61 9.68C1036.47 13.26 1036.05 15.34 1034.41 15.34C1034.21 15.34 1034.03 15.32 1033.83 15.26L1033.63 18C1034.23 18.14 1034.75 18.22 1035.23 18.22C1038.51 18.22 1039.29 15.06 1039.47 9.56L1039.57 6.64H1044.37V18H1047.57V4H1036.81ZM1054.69 15.4V12.16H1061.19V9.64H1054.69V6.6H1062.05V4H1051.47V18H1062.31V15.4H1054.69ZM1077.8 15.36V4H1067.04L1066.88 8.38C1066.74 12.3 1066.28 15.3 1064.46 15.36H1063.9L1063.88 20.9H1066.88V18H1076.76V20.9H1079.76V15.36H1077.8ZM1069.74 8.68L1069.8 6.64H1074.6V15.36H1068.34C1069.3 14.22 1069.62 11.66 1069.74 8.68ZM1091.8 4L1087.96 11.52L1084.24 4H1080.78L1086.3 14.28L1086.18 14.44C1085.64 15.28 1085.02 15.64 1084.22 15.64C1083.8 15.64 1083.34 15.54 1082.82 15.38L1082.04 17.84C1082.82 18.16 1083.58 18.32 1084.32 18.32C1086.2 18.32 1087.86 17.24 1089.02 15.08L1094.98 4H1091.8ZM1109.28 3.76C1105.54 3.76 1102.68 6.1 1102.02 9.5H1100.14V4H1096.92V18H1100.14V12.3H1101.98C1102.56 15.8 1105.48 18.24 1109.28 18.24C1113.54 18.24 1116.68 15.18 1116.68 11C1116.68 6.82 1113.54 3.76 1109.28 3.76ZM1109.28 15.48C1106.96 15.48 1105.16 13.68 1105.16 11C1105.16 8.32 1106.96 6.52 1109.28 6.52C1111.6 6.52 1113.4 8.32 1113.4 11C1113.4 13.68 1111.6 15.48 1109.28 15.48ZM1138.09 15.36V4H1134.87V15.36H1130.47V4H1127.25V15.36H1122.83V4H1119.61V18H1136.99V20.9H1139.99V15.36H1138.09ZM1142.61 18H1145.67L1152.35 8.9V18H1155.55V4H1152.51L1145.83 13.12V4H1142.61V18ZM1165.89 3.1C1168.51 3.1 1169.75 2 1169.77 0.0399988H1167.55C1167.53 1 1166.95 1.5 1165.89 1.5C1164.79 1.5 1164.25 1 1164.23 0.0399988H1162.01C1162.03 2 1163.23 3.1 1165.89 3.1ZM1159.43 18H1162.49L1169.17 8.9V18H1172.37V4H1169.33L1162.65 13.12V4H1159.43V18ZM1194.64 18L1191.5 13.5C1193.32 12.72 1194.38 11.18 1194.38 9.08C1194.38 5.94 1192.04 4 1188.3 4H1182.24V18H1185.48V14.1H1188.3H1188.46L1191.16 18H1194.64ZM1191.1 9.08C1191.1 10.6 1190.1 11.52 1188.12 11.52H1185.48V6.64H1188.12C1190.1 6.64 1191.1 7.54 1191.1 9.08ZM1197.35 18H1203.71C1208.29 18 1211.43 15.24 1211.43 11C1211.43 6.76 1208.29 4 1203.71 4H1197.35V18ZM1200.59 15.34V6.66H1203.55C1206.33 6.66 1208.15 8.32 1208.15 11C1208.15 13.68 1206.33 15.34 1203.55 15.34H1200.59ZM1220.97 18.24C1223.41 18.24 1225.43 17.36 1226.75 15.74L1224.67 13.82C1223.73 14.92 1222.55 15.48 1221.15 15.48C1218.53 15.48 1216.67 13.64 1216.67 11C1216.67 8.36 1218.53 6.52 1221.15 6.52C1222.55 6.52 1223.73 7.08 1224.67 8.16L1226.75 6.24C1225.43 4.64 1223.41 3.76 1220.99 3.76C1216.63 3.76 1213.39 6.78 1213.39 11C1213.39 15.22 1216.63 18.24 1220.97 18.24ZM1229.34 18H1239.6V15.36H1232.58V4H1229.34V18ZM1254.21 18L1251.07 13.5C1252.89 12.72 1253.95 11.18 1253.95 9.08C1253.95 5.94 1251.61 4 1247.87 4H1241.81V18H1245.05V14.1H1247.87H1248.03L1250.73 18H1254.21ZM1250.67 9.08C1250.67 10.6 1249.67 11.52 1247.69 11.52H1245.05V6.64H1247.69C1249.67 6.64 1250.67 7.54 1250.67 9.08ZM1257.88 18.16C1258.96 18.16 1259.82 17.34 1259.82 16.2C1259.82 15.04 1258.96 14.28 1257.88 14.28C1256.8 14.28 1255.94 15.04 1255.94 16.2C1255.94 17.34 1256.8 18.16 1257.88 18.16ZM1272.15 4V9.52H1265.79V4H1262.55V18H1265.79V12.26H1272.15V18H1275.39V4H1272.15ZM1285.88 18.24C1290.28 18.24 1293.54 15.18 1293.54 11C1293.54 6.82 1290.28 3.76 1285.88 3.76C1281.46 3.76 1278.22 6.84 1278.22 11C1278.22 15.16 1281.46 18.24 1285.88 18.24ZM1285.88 15.48C1283.38 15.48 1281.5 13.66 1281.5 11C1281.5 8.34 1283.38 6.52 1285.88 6.52C1288.38 6.52 1290.26 8.34 1290.26 11C1290.26 13.66 1288.38 15.48 1285.88 15.48ZM1312.16 18L1312.12 4H1309.46L1304.3 12.7L1299.06 4H1296.38V18H1299.42V9.78L1303.52 16.52H1304.98L1309.1 9.6L1309.12 18H1312.16ZM1319.1 15.4V12.16H1325.6V9.64H1319.1V6.6H1326.46V4H1315.88V18H1326.72V15.4H1319.1ZM1366.72 18.24C1369.16 18.24 1371.18 17.36 1372.5 15.74L1370.42 13.82C1369.48 14.92 1368.3 15.48 1366.9 15.48C1364.28 15.48 1362.42 13.64 1362.42 11C1362.42 8.36 1364.28 6.52 1366.9 6.52C1368.3 6.52 1369.48 7.08 1370.42 8.16L1372.5 6.24C1371.18 4.64 1369.16 3.76 1366.74 3.76C1362.38 3.76 1359.14 6.78 1359.14 11C1359.14 15.22 1362.38 18.24 1366.72 18.24ZM1376.4 4L1376.2 9.68C1376.06 13.26 1375.64 15.34 1374 15.34C1373.8 15.34 1373.62 15.32 1373.42 15.26L1373.22 18C1373.82 18.14 1374.34 18.22 1374.82 18.22C1378.1 18.22 1378.88 15.06 1379.06 9.56L1379.16 6.64H1383.96V18H1387.16V4H1376.4ZM1394.28 15.4V12.16H1400.78V9.64H1394.28V6.6H1401.64V4H1391.06V18H1401.9V15.4H1394.28ZM1417.39 15.36V4H1406.63L1406.47 8.38C1406.33 12.3 1405.87 15.3 1404.05 15.36H1403.49L1403.47 20.9H1406.47V18H1416.35V20.9H1419.35V15.36H1417.39ZM1409.33 8.68L1409.39 6.64H1414.19V15.36H1407.93C1408.89 14.22 1409.21 11.66 1409.33 8.68ZM1431.39 4L1427.55 11.52L1423.83 4H1420.37L1425.89 14.28L1425.77 14.44C1425.23 15.28 1424.61 15.64 1423.81 15.64C1423.39 15.64 1422.93 15.54 1422.41 15.38L1421.63 17.84C1422.41 18.16 1423.17 18.32 1423.91 18.32C1425.79 18.32 1427.45 17.24 1428.61 15.08L1434.57 4H1431.39ZM1448.87 3.76C1445.13 3.76 1442.27 6.1 1441.61 9.5H1439.73V4H1436.51V18H1439.73V12.3H1441.57C1442.15 15.8 1445.07 18.24 1448.87 18.24C1453.13 18.24 1456.27 15.18 1456.27 11C1456.27 6.82 1453.13 3.76 1448.87 3.76ZM1448.87 15.48C1446.55 15.48 1444.75 13.68 1444.75 11C1444.75 8.32 1446.55 6.52 1448.87 6.52C1451.19 6.52 1452.99 8.32 1452.99 11C1452.99 13.68 1451.19 15.48 1448.87 15.48ZM1477.68 15.36V4H1474.46V15.36H1470.06V4H1466.84V15.36H1462.42V4H1459.2V18H1476.58V20.9H1479.58V15.36H1477.68ZM1482.2 18H1485.26L1491.94 8.9V18H1495.14V4H1492.1L1485.42 13.12V4H1482.2V18ZM1505.48 3.1C1508.1 3.1 1509.34 2 1509.36 0.0399988H1507.14C1507.12 1 1506.54 1.5 1505.48 1.5C1504.38 1.5 1503.84 1 1503.82 0.0399988H1501.6C1501.62 2 1502.82 3.1 1505.48 3.1ZM1499.02 18H1502.08L1508.76 8.9V18H1511.96V4H1508.92L1502.24 13.12V4H1499.02V18ZM1534.23 18L1531.09 13.5C1532.91 12.72 1533.97 11.18 1533.97 9.08C1533.97 5.94 1531.63 4 1527.89 4H1521.83V18H1525.07V14.1H1527.89H1528.05L1530.75 18H1534.23ZM1530.69 9.08C1530.69 10.6 1529.69 11.52 1527.71 11.52H1525.07V6.64H1527.71C1529.69 6.64 1530.69 7.54 1530.69 9.08ZM1536.94 18H1543.3C1547.88 18 1551.02 15.24 1551.02 11C1551.02 6.76 1547.88 4 1543.3 4H1536.94V18ZM1540.18 15.34V6.66H1543.14C1545.92 6.66 1547.74 8.32 1547.74 11C1547.74 13.68 1545.92 15.34 1543.14 15.34H1540.18ZM1560.56 18.24C1563 18.24 1565.02 17.36 1566.34 15.74L1564.26 13.82C1563.32 14.92 1562.14 15.48 1560.74 15.48C1558.12 15.48 1556.26 13.64 1556.26 11C1556.26 8.36 1558.12 6.52 1560.74 6.52C1562.14 6.52 1563.32 7.08 1564.26 8.16L1566.34 6.24C1565.02 4.64 1563 3.76 1560.58 3.76C1556.22 3.76 1552.98 6.78 1552.98 11C1552.98 15.22 1556.22 18.24 1560.56 18.24ZM1568.93 18H1579.19V15.36H1572.17V4H1568.93V18ZM1593.8 18L1590.66 13.5C1592.48 12.72 1593.54 11.18 1593.54 9.08C1593.54 5.94 1591.2 4 1587.46 4H1581.4V18H1584.64V14.1H1587.46H1587.62L1590.32 18H1593.8ZM1590.26 9.08C1590.26 10.6 1589.26 11.52 1587.28 11.52H1584.64V6.64H1587.28C1589.26 6.64 1590.26 7.54 1590.26 9.08ZM1597.47 18.16C1598.55 18.16 1599.41 17.34 1599.41 16.2C1599.41 15.04 1598.55 14.28 1597.47 14.28C1596.39 14.28 1595.53 15.04 1595.53 16.2C1595.53 17.34 1596.39 18.16 1597.47 18.16ZM1611.74 4V9.52H1605.38V4H1602.14V18H1605.38V12.26H1611.74V18H1614.98V4H1611.74ZM1625.47 18.24C1629.87 18.24 1633.13 15.18 1633.13 11C1633.13 6.82 1629.87 3.76 1625.47 3.76C1621.05 3.76 1617.81 6.84 1617.81 11C1617.81 15.16 1621.05 18.24 1625.47 18.24ZM1625.47 15.48C1622.97 15.48 1621.09 13.66 1621.09 11C1621.09 8.34 1622.97 6.52 1625.47 6.52C1627.97 6.52 1629.85 8.34 1629.85 11C1629.85 13.66 1627.97 15.48 1625.47 15.48ZM1651.75 18L1651.71 4H1649.05L1643.89 12.7L1638.65 4H1635.97V18H1639.01V9.78L1643.11 16.52H1644.57L1648.69 9.6L1648.71 18H1651.75ZM1658.69 15.4V12.16H1665.19V9.64H1658.69V6.6H1666.05V4H1655.47V18H1666.31V15.4H1658.69ZM1694.18 18.24C1696.62 18.24 1698.64 17.36 1699.96 15.74L1697.88 13.82C1696.94 14.92 1695.76 15.48 1694.36 15.48C1691.74 15.48 1689.88 13.64 1689.88 11C1689.88 8.36 1691.74 6.52 1694.36 6.52C1695.76 6.52 1696.94 7.08 1697.88 8.16L1699.96 6.24C1698.64 4.64 1696.62 3.76 1694.2 3.76C1689.84 3.76 1686.6 6.78 1686.6 11C1686.6 15.22 1689.84 18.24 1694.18 18.24ZM1703.86 4L1703.66 9.68C1703.52 13.26 1703.1 15.34 1701.46 15.34C1701.26 15.34 1701.08 15.32 1700.88 15.26L1700.68 18C1701.28 18.14 1701.8 18.22 1702.28 18.22C1705.56 18.22 1706.34 15.06 1706.52 9.56L1706.62 6.64H1711.42V18H1714.62V4H1703.86ZM1721.74 15.4V12.16H1728.24V9.64H1721.74V6.6H1729.1V4H1718.52V18H1729.36V15.4H1721.74ZM1744.85 15.36V4H1734.09L1733.93 8.38C1733.79 12.3 1733.33 15.3 1731.51 15.36H1730.95L1730.93 20.9H1733.93V18H1743.81V20.9H1746.81V15.36H1744.85ZM1736.79 8.68L1736.85 6.64H1741.65V15.36H1735.39C1736.35 14.22 1736.67 11.66 1736.79 8.68ZM1758.86 4L1755.02 11.52L1751.3 4H1747.84L1753.36 14.28L1753.24 14.44C1752.7 15.28 1752.08 15.64 1751.28 15.64C1750.86 15.64 1750.4 15.54 1749.88 15.38L1749.1 17.84C1749.88 18.16 1750.64 18.32 1751.38 18.32C1753.26 18.32 1754.92 17.24 1756.08 15.08L1762.04 4H1758.86ZM1776.34 3.76C1772.6 3.76 1769.74 6.1 1769.08 9.5H1767.2V4H1763.98V18H1767.2V12.3H1769.04C1769.62 15.8 1772.54 18.24 1776.34 18.24C1780.6 18.24 1783.74 15.18 1783.74 11C1783.74 6.82 1780.6 3.76 1776.34 3.76ZM1776.34 15.48C1774.02 15.48 1772.22 13.68 1772.22 11C1772.22 8.32 1774.02 6.52 1776.34 6.52C1778.66 6.52 1780.46 8.32 1780.46 11C1780.46 13.68 1778.66 15.48 1776.34 15.48ZM1805.14 15.36V4H1801.92V15.36H1797.52V4H1794.3V15.36H1789.88V4H1786.66V18H1804.04V20.9H1807.04V15.36H1805.14ZM1809.66 18H1812.72L1819.4 8.9V18H1822.6V4H1819.56L1812.88 13.12V4H1809.66V18ZM1832.94 3.1C1835.56 3.1 1836.8 2 1836.82 0.0399988H1834.6C1834.58 1 1834 1.5 1832.94 1.5C1831.84 1.5 1831.3 1 1831.28 0.0399988H1829.06C1829.08 2 1830.28 3.1 1832.94 3.1ZM1826.48 18H1829.54L1836.22 8.9V18H1839.42V4H1836.38L1829.7 13.12V4H1826.48V18ZM1861.69 18L1858.55 13.5C1860.37 12.72 1861.43 11.18 1861.43 9.08C1861.43 5.94 1859.09 4 1855.35 4H1849.29V18H1852.53V14.1H1855.35H1855.51L1858.21 18H1861.69ZM1858.15 9.08C1858.15 10.6 1857.15 11.52 1855.17 11.52H1852.53V6.64H1855.17C1857.15 6.64 1858.15 7.54 1858.15 9.08ZM1864.4 18H1870.76C1875.34 18 1878.48 15.24 1878.48 11C1878.48 6.76 1875.34 4 1870.76 4H1864.4V18ZM1867.64 15.34V6.66H1870.6C1873.38 6.66 1875.2 8.32 1875.2 11C1875.2 13.68 1873.38 15.34 1870.6 15.34H1867.64ZM1888.02 18.24C1890.46 18.24 1892.48 17.36 1893.8 15.74L1891.72 13.82C1890.78 14.92 1889.6 15.48 1888.2 15.48C1885.58 15.48 1883.72 13.64 1883.72 11C1883.72 8.36 1885.58 6.52 1888.2 6.52C1889.6 6.52 1890.78 7.08 1891.72 8.16L1893.8 6.24C1892.48 4.64 1890.46 3.76 1888.04 3.76C1883.68 3.76 1880.44 6.78 1880.44 11C1880.44 15.22 1883.68 18.24 1888.02 18.24ZM1896.39 18H1906.65V15.36H1899.63V4H1896.39V18ZM1921.26 18L1918.12 13.5C1919.94 12.72 1921 11.18 1921 9.08C1921 5.94 1918.66 4 1914.92 4H1908.86V18H1912.1V14.1H1914.92H1915.08L1917.78 18H1921.26ZM1917.72 9.08C1917.72 10.6 1916.72 11.52 1914.74 11.52H1912.1V6.64H1914.74C1916.72 6.64 1917.72 7.54 1917.72 9.08ZM1924.93 18.16C1926.01 18.16 1926.87 17.34 1926.87 16.2C1926.87 15.04 1926.01 14.28 1924.93 14.28C1923.85 14.28 1922.99 15.04 1922.99 16.2C1922.99 17.34 1923.85 18.16 1924.93 18.16ZM1939.2 4V9.52H1932.84V4H1929.6V18H1932.84V12.26H1939.2V18H1942.44V4H1939.2ZM1952.94 18.24C1957.34 18.24 1960.6 15.18 1960.6 11C1960.6 6.82 1957.34 3.76 1952.94 3.76C1948.52 3.76 1945.28 6.84 1945.28 11C1945.28 15.16 1948.52 18.24 1952.94 18.24ZM1952.94 15.48C1950.44 15.48 1948.56 13.66 1948.56 11C1948.56 8.34 1950.44 6.52 1952.94 6.52C1955.44 6.52 1957.32 8.34 1957.32 11C1957.32 13.66 1955.44 15.48 1952.94 15.48ZM1979.21 18L1979.17 4H1976.51L1971.35 12.7L1966.11 4H1963.43V18H1966.47V9.78L1970.57 16.52H1972.03L1976.15 9.6L1976.17 18H1979.21ZM1986.15 15.4V12.16H1992.65V9.64H1986.15V6.6H1993.51V4H1982.93V18H1993.77V15.4H1986.15Z" fill="#EC3332"/>
</svg>
